<?xml version="1.0" standalone="no"?><!DOCTYPE svg PUBLIC "-//W3C//DTD SVG 1.1//EN" "http://www.w3.org/Graphics/SVG/1.1/DTD/svg11.dtd"><svg xmlns:xlink="http://www.w3.org/1999/xlink" version="1.1" style="font-family:'unica one', sans-serif;font-size:12px;" xmlns="http://www.w3.org/2000/svg" width="600" height="400"><desc>Created with Highcharts 4.2.7</desc><defs><linearGradient x1="0" y1="0" x2="1" y2="1" id="highcharts-30"><stop offset="0" stop-color="rgb(48, 48, 96)" stop-opacity="1"></stop><stop offset="1" stop-color="rgb(0, 0, 0)" stop-opacity="1"></stop></linearGradient><clipPath id="highcharts-31"><rect x="0" y="0" width="600" height="400"></rect></clipPath></defs><rect x="1" y="1" width="598" height="398" fill="url(#highcharts-30)" stroke="#000000" stroke-width="2" class=" highcharts-background"></rect><g class="highcharts-series-group"><g class="highcharts-series highcharts-series-0" transform="translate(10,44) scale(1 1)"><path fill="rgb(4,18,17)" d="M 404.90615940546877 93.00604043342653 L 404.90615940546877 100.96099172177519 L 290 159.95495128834867 L 290 152 Z" transform="translate(0,0)" visibility="visible"></path><path fill="rgb(230,217,74)" d="M 206.52640109477764 70.77143887212436 L 206.52640109477764 78.72639016047302 L 290 159.95495128834867 L 290 152 Z" transform="translate(0,0)" visibility="visible"></path><path fill="rgb(230,217,74)" d="M 289.94334478687716 51.59084506334389 L 289.94334478687716 59.54579635169255 L 290 159.95495128834867 L 290 152 Z" transform="translate(0,0)" visibility="visible"></path><path fill="rgb(230,125,60)" d="M 148.0000117811078 151.95909868906037 L 148.0000117811078 159.91404997740904 L 290 159.95495128834867 L 290 152 Z" transform="translate(0,0)" visibility="visible"></path><path fill="rgb(230,217,74)" d="M 206.52640109477764 70.77143887212436 C 231.89051299408615 57.73886957708933 258.5899758958658 51.59969053066089 289.94334478687716 51.59084506334389 L 289.94334478687716 59.54579635169255 C 258.5899758958658 59.55464181900955 231.89051299408615 65.69382086543798 206.52640109477764 78.72639016047302 Z" transform="translate(0,0)" visibility="visible"></path><path fill="rgb(230,217,74)" d="M 290 152 C 290 152 290 152 290 152 L 290 159.95495128834867 C 290 159.95495128834867 290 159.95495128834867 290 159.95495128834867 Z" transform="translate(0,0)" visibility="visible"></path><path fill="rgb(4,18,17)" d="M 289.9710784050753 51.59083915413558 L 289.9710784050753 59.54579044248424 L 290 159.95495128834867 L 290 152 Z" transform="translate(0,0)" visibility="visible"></path><path fill="rgb(212,61,2)" d="M 431.99999999290003 151.99899590837074 L 431.99999999290003 159.9539471967194 L 290 159.95495128834867 L 290 152 Z" transform="translate(0,0)" visibility="visible"></path><path fill="rgb(4,18,17)" d="M 289.9710784050753 51.59083915413558 C 337.05131068668317 51.584058719982266 377.2448454754614 66.06722016133307 404.90615940546877 93.00604043342653 L 404.90615940546877 100.96099172177519 C 377.2448454754614 74.02217144968172 337.05131068668317 59.539010008330926 289.9710784050753 59.54579044248424 Z" transform="translate(0,0)" visibility="visible"></path><path fill="rgb(4,18,17)" d="M 290 152 C 290 152 290 152 290 152 L 290 159.95495128834867 C 290 159.95495128834867 290 159.95495128834867 290 159.95495128834867 Z" transform="translate(0,0)" visibility="visible"></path><path fill="rgb(230,125,60)" d="M 206.5252523536234 70.77202912366411 L 206.5252523536234 78.72698041201276 L 290 159.95495128834867 L 290 152 Z" transform="translate(0,0)" visibility="visible"></path><path fill="rgb(179,75,204)" d="M 246.11358956128356 247.49341071195573 L 246.11358956128356 255.4483620003044 L 290 159.95495128834867 L 290 152 Z" transform="translate(0,0)" visibility="visible"></path><path fill="rgb(212,61,2)" d="M 404.9069937003006 93.00685294562138 L 404.9069937003006 100.96180423397003 L 290 159.95495128834867 L 290 152 Z" transform="translate(0,0)" visibility="visible"></path><path fill="rgb(49,110,62)" d="M 333.8327461072229 247.50573377734904 L 333.8327461072229 255.4606850656977 L 290 159.95495128834867 L 290 152 Z" transform="translate(0,0)" visibility="visible"></path><path fill="rgb(230,125,60)" d="M 148.0000117811078 151.95909868906037 C 148.01916940718823 118.70365265042983 168.47915902379233 90.3212558578467 206.5252523536234 70.77202912366411 L 206.5252523536234 78.72698041201276 C 168.47915902379233 98.27620714619535 148.01916940718823 126.65860393877848 148.0000117811078 159.91404997740904 Z" transform="translate(0,0)" visibility="visible"></path><path fill="rgb(230,125,60)" d="M 290 152 C 290 152 290 152 290 152 L 290 159.95495128834867 C 290 159.95495128834867 290 159.95495128834867 290 159.95495128834867 Z" transform="translate(0,0)" visibility="visible"></path><path fill="rgb(212,61,2)" d="M 404.9069937003006 93.00685294562138 C 423.3279624138055 110.9470565252424 431.9996864591862 129.8288143890178 431.99999999290003 151.99899590837074 L 431.99999999290003 159.9539471967194 C 431.9996864591862 137.78376567736646 423.3279624138055 118.90200781359106 404.9069937003006 100.96180423397003 Z" transform="translate(0,0)" visibility="visible"></path><path fill="rgb(212,61,2)" d="M 290 152 C 290 152 290 152 290 152 L 290 159.95495128834867 C 290 159.95495128834867 290 159.95495128834867 290 159.95495128834867 Z" transform="translate(0,0)" visibility="visible"></path><path fill="rgb(179,75,204)" d="M 148.0000112097759 151.96010278060837 L 148.0000112097759 159.91505406895703 L 290 159.95495128834867 L 290 152 Z" transform="translate(0,0)" visibility="visible"></path><path fill="rgb(11,178,204)" d="M 333.8313954499913 247.50604371689386 L 333.8313954499913 255.46099500524252 L 290 159.95495128834867 L 290 152 Z" transform="translate(0,0)" visibility="visible"></path><path fill="rgb(49,110,62)" d="M 432 152 L 432 159.95495128834867 L 290 159.95495128834867 L 290 152 Z" transform="translate(0,0)" visibility="visible"></path><path fill="rgb(11,178,204)" d="M 246.11494004424335 247.49372103096528 L 246.11494004424335 255.44867231931394 L 290 159.95495128834867 L 290 152 Z" transform="translate(0,0)" visibility="visible"></path><path fill="rgb(179,75,204)" d="M 246.11358956128356 247.49341071195573 C 186.447703610809 233.7829277556467 148 196.36199179503507 148 152 L 148 159.95495128834867 C 148 159.94092360949904 148.0000033271649 159.9290817466993 148.0000112097759 159.91505406895703 L 148.0000112097759 151.96010278060837 C 148.0000033271649 151.97413045835063 148 151.98597232115037 148 152 L 148 159.95495128834867 C 148 204.31694308338373 186.447703610809 241.73787904399538 246.11358956128356 255.4483620003044 Z" transform="translate(0,0)" visibility="visible"></path><path fill="rgb(179,75,204)" d="M 290 152 C 290 152 290 152 290 152 L 290 159.95495128834867 C 290 159.95495128834867 290 159.95495128834867 290 159.95495128834867 Z" transform="translate(0,0)" visibility="visible"></path><path fill="rgb(49,110,62)" d="M 432 152 C 432 196.3760194738847 393.525201064565 233.80768592630702 333.8327461072229 247.50573377734904 L 333.8327461072229 255.4606850656977 C 393.525201064565 241.76263721465568 432 204.33097076223336 432 159.95495128834867 Z" transform="translate(0,0)" visibility="visible"></path><path fill="rgb(49,110,62)" d="M 290 152 C 290 152 290 152 290 152 L 290 159.95495128834867 C 290 159.95495128834867 290 159.95495128834867 290 159.95495128834867 Z" transform="translate(0,0)" visibility="visible"></path><path fill="rgb(11,178,204)" d="M 333.8313954499913 247.50604371689386 C 304.00905283724956 254.34935352972087 275.9334348234097 254.3454093778347 246.11494004424335 247.49372103096528 L 246.11494004424335 255.44867231931394 C 275.9334348234097 262.30036066618334 304.00905283724956 262.3043048180695 333.8313954499913 255.46099500524252 Z" transform="translate(0,0)" visibility="visible"></path><path fill="rgb(11,178,204)" d="M 290 152 C 290 152 290 152 290 152 L 290 159.95495128834867 C 290 159.95495128834867 290 159.95495128834867 290 159.95495128834867 Z" transform="translate(0,0)" visibility="visible"></path><g stroke="#1d2b2a" stroke-width="1" stroke-linejoin="round"><path fill="#1d2b2a" d="M 289.9710784050753 51.59083915413558 C 337.05131068668317 51.584058719982266 377.2448454754614 66.06722016133307 404.90615940546877 93.00604043342653 L 290 152 C 290 152 290 152 290 152 Z" transform="translate(0,0)" visibility="visible"></path></g><g stroke="#ED561B" stroke-width="1" stroke-linejoin="round"><path fill="#ED561B" d="M 404.9069937003006 93.00685294562138 C 423.3279624138055 110.9470565252424 431.9996864591862 129.8288143890178 431.99999999290003 151.99899590837074 L 290 152 C 290 152 290 152 290 152 Z" transform="translate(0,0)" visibility="visible"></path></g><g stroke="#4a8757" stroke-width="1" stroke-linejoin="round"><path fill="#4a8757" d="M 432 152 C 432 196.3760194738847 393.525201064565 233.80768592630702 333.8327461072229 247.50573377734904 L 290 152 C 290 152 290 152 290 152 Z" transform="translate(0,0)" visibility="visible"></path></g><g stroke="#24CBE5" stroke-width="1" stroke-linejoin="round"><path fill="#24CBE5" d="M 333.8313954499913 247.50604371689386 C 304.00905283724956 254.34935352972087 275.9334348234097 254.3454093778347 246.11494004424335 247.49372103096528 L 290 152 C 290 152 290 152 290 152 Z" transform="translate(0,0)" visibility="visible"></path></g><g stroke="#cc64e5" stroke-width="1" stroke-linejoin="round"><path fill="#cc64e5" d="M 246.11358956128356 247.49341071195573 C 186.42883669675655 233.7785923720446 147.97507487478043 196.33611875135762 148.0000112097759 151.96010278060837 L 290 152 C 290 152 290 152 290 152 Z" transform="translate(0,0)" visibility="visible"></path></g><g stroke="#FF9655" stroke-width="1" stroke-linejoin="round"><path fill="#FF9655" d="M 148.0000117811078 151.95909868906037 C 148.01916940718823 118.70365265042983 168.47915902379233 90.3212558578467 206.5252523536234 70.77202912366411 L 290 152 C 290 152 290 152 290 152 Z" transform="translate(0,0)" visibility="visible"></path></g><g stroke="#FFF263" stroke-width="1" stroke-linejoin="round"><path fill="#FFF263" d="M 206.52640109477764 70.77143887212436 C 231.89051299408615 57.73886957708933 258.5899758958658 51.59969053066089 289.94334478687716 51.59084506334389 L 290 152 C 290 152 290 152 290 152 Z" transform="translate(0,0)" visibility="visible"></path></g></g><g class="highcharts-markers highcharts-series-0" transform="translate(10,44) scale(1 1)"></g></g><text x="300" text-anchor="middle" class="highcharts-title" style="color:#c0c0c0;font-size:16px;font-family:'trebuchet ms', verdana, sans-serif;font-weight:bold;text-transform:uppercase;fill:#c0c0c0;width:536px;" y="22"><tspan>Skills</tspan></text><g class="highcharts-data-labels highcharts-series-0" transform="translate(10,44) scale(1 1)" opacity="1"><path fill="none" d="M 421.81629834518617 35.80350059479103 C 416.81629834518617 35.80350059479103 364.4544419572857 42.93155278829797 359.4605464601507 52.73262455437002 L 354.46665096301564 62.53369632044207" stroke="#1d2b2a" stroke-width="1"></path><path fill="none" d="M 462.2109781273132 111.69505249095101 C 457.2109781273132 111.69505249095101 445.9732686724051 114.1671884459506 435.5116469931584 117.56637538407502 L 425.05002531391176 120.96556232219943" stroke="#ED561B" stroke-width="1"></path><path fill="none" d="M 448.9783021928353 228.64647711285812 C 443.9783021928353 228.64647711285812 422.6787870774914 223.94419509451834 413.77960013936695 217.47855731930113 L 404.8804132012425 211.01291954408393" stroke="#4a8757" stroke-width="1"></path><path fill="none" d="M 172.85076906507447 282.4091637911414 C 177.85076906507447 282.4091637911414 290 274.4091637911414 290 263.4091637911414 L 290 252.4091637911414" stroke="#24CBE5" stroke-width="1"></path><path fill="none" d="M 131.02852130922068 228.66018360123388 C 136.02852130922068 228.66018360123388 157.32121292250866 223.9579015828941 166.22039986063308 217.4922638076769 L 175.1195867987575 211.0266260324597" stroke="#cc64e5" stroke-width="1"></path><path fill="none" d="M 123.50831673820582 92.80172099399897 C 128.50831673820582 92.80172099399897 143.87493003310766 96.43364499191534 153.67600179917972 101.42754048905036 L 163.47707356525177 106.42143598618537" stroke="#FF9655" stroke-width="1"></path><path fill="none" d="M 165.833315853061 27.970562407855457 C 170.833315853061 27.970562407855457 239.3212129225086 35.57901453821668 242.72039986063302 46.04063621746337 L 246.11958679875744 56.50225789671006" stroke="#FFF263" stroke-width="1"></path><g style="cursor:pointer;" transform="translate(427,26)"><text x="5" style="font-size:10px;font-weight:bold;font-family:'arial', sans-serif;color:#a0a0a0;text-shadow:0 0 6px #000000, 0 0 3px #000000;fill:#a0a0a0;text-rendering:geometricprecision;" y="15"><tspan>HTML5 : 15</tspan></text></g><g style="cursor:pointer;" transform="translate(467,102)"><text x="5" style="font-size:10px;font-weight:bold;font-family:'arial', sans-serif;color:#a0a0a0;text-shadow:0 0 6px #000000, 0 0 3px #000000;fill:#a0a0a0;text-rendering:geometricprecision;" y="15"><tspan>CSS3 : 10</tspan></text></g><g style="cursor:pointer;" transform="translate(454,219)"><text x="5" style="font-size:10px;font-weight:bold;font-family:'arial', sans-serif;color:#a0a0a0;text-shadow:0 0 6px #000000, 0 0 3px #000000;fill:#a0a0a0;text-rendering:geometricprecision;" y="15"><tspan>JS : 20</tspan></text></g><g style="cursor:pointer;" transform="translate(117,272)"><text x="5" style="font-size:10px;font-weight:bold;font-family:'arial', sans-serif;color:#a0a0a0;text-shadow:0 0 6px #000000, 0 0 3px #000000;fill:#a0a0a0;text-rendering:geometricprecision;" y="15"><tspan>SQL : 10</tspan></text></g><g style="cursor:pointer;" transform="translate(70,219)"><text x="5" style="font-size:10px;font-weight:bold;font-family:'arial', sans-serif;color:#a0a0a0;text-shadow:0 0 6px #000000, 0 0 3px #000000;fill:#a0a0a0;text-rendering:geometricprecision;" y="15"><tspan>JAVA : 20</tspan></text></g><g style="cursor:pointer;" transform="translate(68,83)"><text x="5" style="font-size:10px;font-weight:bold;font-family:'arial', sans-serif;color:#a0a0a0;text-shadow:0 0 6px #000000, 0 0 3px #000000;fill:#a0a0a0;text-rendering:geometricprecision;" y="15"><tspan>PHP : 15</tspan></text></g><g style="cursor:pointer;" transform="translate(95,18)"><text x="5" style="font-size:10px;font-weight:bold;font-family:'arial', sans-serif;color:#a0a0a0;text-shadow:0 0 6px #000000, 0 0 3px #000000;fill:#a0a0a0;text-rendering:geometricprecision;" y="15"><tspan>node.js : 10</tspan></text></g></g><g class="highcharts-legend" transform="translate(67,360)"><g><g><g class="highcharts-legend-item" transform="translate(8,3)"><text x="21" style="color:#a0a0a0;font-size:9pt;font-weight:normal;cursor:pointer;font-family:trebuchet ms, verdana, sans-serif;text-transform:none;fill:#a0a0a0;" text-anchor="start" y="15">HTML5</text><rect x="0" y="4" width="16" height="12" fill="#1d2b2a"></rect></g><g class="highcharts-legend-item" transform="translate(84.6875,3)"><text x="21" y="15" style="color:#a0a0a0;font-size:9pt;font-weight:normal;cursor:pointer;font-family:trebuchet ms, verdana, sans-serif;text-transform:none;fill:#a0a0a0;" text-anchor="start">CSS3</text><rect x="0" y="4" width="16" height="12" fill="#ED561B"></rect></g><g class="highcharts-legend-item" transform="translate(150.6875,3)"><text x="21" y="15" style="color:#a0a0a0;font-size:9pt;font-weight:normal;cursor:pointer;font-family:trebuchet ms, verdana, sans-serif;text-transform:none;fill:#a0a0a0;" text-anchor="start">JS</text><rect x="0" y="4" width="16" height="12" fill="#4a8757"></rect></g><g class="highcharts-legend-item" transform="translate(203.40625,3)"><text x="21" y="15" style="color:#a0a0a0;font-size:9pt;font-weight:normal;cursor:pointer;font-family:trebuchet ms, verdana, sans-serif;text-transform:none;fill:#a0a0a0;" text-anchor="start">SQL</text><rect x="0" y="4" width="16" height="12" fill="#24CBE5"></rect></g><g class="highcharts-legend-item" transform="translate(265.28125,3)"><text x="21" y="15" style="color:#a0a0a0;font-size:9pt;font-weight:normal;cursor:pointer;font-family:trebuchet ms, verdana, sans-serif;text-transform:none;fill:#a0a0a0;" text-anchor="start">JAVA</text><rect x="0" y="4" width="16" height="12" fill="#cc64e5"></rect></g><g class="highcharts-legend-item" transform="translate(334.125,3)"><text x="21" y="15" style="color:#a0a0a0;font-size:9pt;font-weight:normal;cursor:pointer;font-family:trebuchet ms, verdana, sans-serif;text-transform:none;fill:#a0a0a0;" text-anchor="start">PHP</text><rect x="0" y="4" width="16" height="12" fill="#FF9655"></rect></g><g class="highcharts-legend-item" transform="translate(396.65625,3)"><text x="21" y="15" style="color:#a0a0a0;font-size:9pt;font-weight:normal;cursor:pointer;font-family:trebuchet ms, verdana, sans-serif;text-transform:none;fill:#a0a0a0;" text-anchor="start">node.js</text><rect x="0" y="4" width="16" height="12" fill="#FFF263"></rect></g></g></g></g><g class="highcharts-tooltip" display="none" style="cursor:default;padding:0;pointer-events:none;white-space:nowrap;" transform="translate(0,0)"><path fill="none" d="M 3.5 0.5 L 13.5 0.5 C 16.5 0.5 16.5 0.5 16.5 3.5 L 16.5 13.5 C 16.5 16.5 16.5 16.5 13.5 16.5 L 3.5 16.5 C 0.5 16.5 0.5 16.5 0.5 13.5 L 0.5 3.5 C 0.5 0.5 0.5 0.5 3.5 0.5"  stroke="black" stroke-opacity="0.049999999999999996" stroke-width="5" transform="translate(1, 1)"></path><path fill="none" d="M 3.5 0.5 L 13.5 0.5 C 16.5 0.5 16.5 0.5 16.5 3.5 L 16.5 13.5 C 16.5 16.5 16.5 16.5 13.5 16.5 L 3.5 16.5 C 0.5 16.5 0.5 16.5 0.5 13.5 L 0.5 3.5 C 0.5 0.5 0.5 0.5 3.5 0.5"  stroke="black" stroke-opacity="0.09999999999999999" stroke-width="3" transform="translate(1, 1)"></path><path fill="none" d="M 3.5 0.5 L 13.5 0.5 C 16.5 0.5 16.5 0.5 16.5 3.5 L 16.5 13.5 C 16.5 16.5 16.5 16.5 13.5 16.5 L 3.5 16.5 C 0.5 16.5 0.5 16.5 0.5 13.5 L 0.5 3.5 C 0.5 0.5 0.5 0.5 3.5 0.5"  stroke="black" stroke-opacity="0.15" stroke-width="1" transform="translate(1, 1)"></path><path fill="rgb(0, 0, 0)" fill-opacity=" 0.75" d="M 3.5 0.5 L 13.5 0.5 C 16.5 0.5 16.5 0.5 16.5 3.5 L 16.5 13.5 C 16.5 16.5 16.5 16.5 13.5 16.5 L 3.5 16.5 C 0.5 16.5 0.5 16.5 0.5 13.5 L 0.5 3.5 C 0.5 0.5 0.5 0.5 3.5 0.5"></path><text x="8" style="font-size:12px;color:#f0f0f0;fill:#f0f0f0;" y="20"></text></g><text x="590" text-anchor="end" style="cursor:pointer;color:#666;font-size:9px;fill:#666;" y="395">meta-chart.com</text></svg>